# xmcd
#
# Track frame offsets:
#	150
#	35640
#	73952
#	95532
#	114632
#	139462
#	151612
#	165397
#	180380
#	202507
#	227315
#	248865
#	275790
#	302952
#	321865
#
# Disc length: 4738 seconds
#
# Revision: 1
# Processed by: cddbd v1.4PL0 Copyright (c) Steve Scherf et al.
# Submitted via: audiograbber 1.81.03
#
DISCID=cb12800f
DTITLE=Various Artist - Chicago Blues (JSP) - CD 1
DYEAR=1997
DGENRE=Blues
TTITLE0=Lefty Dizz - Where The Hell Were You When I Got Home
TTITLE1=Lefty Dizz - Ain't It Nice To Be Loved
TTITLE2=Johnny Littlejohn - Keep On Running
TTITLE3=Johnny Littlejohn - If You Don't Want Me
TTITLE4=Hubert Sumlin - You Got To Help Me
TTITLE5=Hip Lankchan - Tell Me Why
TTITLE6=Hip Lankchan - You Must Be Champoo Baby
TTITLE7=Louisiana Red - Good Kookamaloo
TTITLE8=Walter Horton - Little Boy Blue
TTITLE9=Eddie C. Campbell - Cha Cha In Blues
TTITLE10=Byther Smith - Hello Mrs Brown
TTITLE11=Carey Bell - Brought Up The Hard Way
TTITLE12=Tré - One Eyed Man
TTITLE13=Lucky Lopez Evans - Young Girls
TTITLE14=Lucky Lopez Evans - Good Lovings
EXTD=
EXTT0=
EXTT1=
EXTT2=
EXTT3=
EXTT4=
EXTT5=
EXTT6=
EXTT7=
EXTT8=
EXTT9=
EXTT10=
EXTT11=
EXTT12=
EXTT13=
EXTT14=
PLAYORDER=
